<svg width="12" height="12" viewBox="0 0 12 12" fill="none" xmlns="http://www.w3.org/2000/svg">
<path d="M4.58125 5.435C4.53125 5.43 4.47125 5.43 4.41625 5.435C3.22625 5.395 2.28125 4.42 2.28125 3.22C2.28125 1.995 3.27125 1 4.50125 1C5.72625 1 6.72125 1.995 6.72125 3.22C6.71625 4.42 5.77125 5.395 4.58125 5.435Z" stroke="white" stroke-width="0.75" stroke-linecap="round" stroke-linejoin="round"/>
<path d="M8.20562 2C9.17562 2 9.95562 2.785 9.95562 3.75C9.95562 4.695 9.20563 5.465 8.27063 5.5C8.23063 5.495 8.18563 5.495 8.14062 5.5" stroke="white" stroke-width="0.75" stroke-linecap="round" stroke-linejoin="round"/>
<path d="M2.07938 7.28C0.869375 8.09 0.869375 9.41 2.07938 10.215C3.45438 11.135 5.70938 11.135 7.08438 10.215C8.29438 9.405 8.29438 8.085 7.08438 7.28C5.71438 6.365 3.45938 6.365 2.07938 7.28Z" stroke="white" stroke-width="0.75" stroke-linecap="round" stroke-linejoin="round"/>
<path d="M9.16992 10C9.52992 9.925 9.86992 9.78 10.1499 9.565C10.9299 8.98 10.9299 8.015 10.1499 7.43C9.87492 7.22 9.53992 7.08 9.18492 7" stroke="white" stroke-width="0.75" stroke-linecap="round" stroke-linejoin="round"/>
</svg>
